# Blender v3.0.1 OBJ File: 'card.blend'
# www.blender.org
mtllib card.mtl
o Plane
v -0.641509 0.000000 0.000000
v 0.000000 1.000000 0.000000
v 0.000000 0.000000 0.000000
v -0.641509 0.901500 0.000000
v -0.543010 1.000000 0.000000
v -0.634012 0.939194 0.000000
v -0.612660 0.971150 0.000000
v -0.580704 0.992502 0.000000
v 0.641509 0.000000 0.000000
v 0.641509 0.901500 0.000000
v 0.543010 1.000000 0.000000
v 0.634012 0.939194 0.000000
v 0.612660 0.971150 0.000000
v 0.580704 0.992502 0.000000
v 0.000000 -1.000000 0.000000
v -0.641509 -0.901500 0.000000
v -0.543010 -1.000000 0.000000
v -0.634012 -0.939194 0.000000
v -0.612660 -0.971150 0.000000
v -0.580704 -0.992502 0.000000
v 0.641509 -0.901500 0.000000
v 0.543010 -1.000000 0.000000
v 0.634012 -0.939194 0.000000
v 0.612660 -0.971150 0.000000
v 0.580704 -0.992502 0.000000
vt 0.030049 0.110717
vt 0.029662 0.108770
vt 0.034751 0.113858
vt 0.095276 0.108770
vt 0.093785 0.112368
vt 0.090187 0.113858
vt 0.029667 0.016248
vt 0.031157 0.012650
vt 0.034756 0.011159
vt 0.094893 0.014301
vt 0.095280 0.016248
vt 0.090192 0.011159
vt 0.029662 0.062351
vt 0.062803 0.062351
vt 0.062803 0.113858
vt 0.032803 0.113471
vt 0.031152 0.112368
vt 0.095276 0.062351
vt 0.094888 0.110717
vt 0.092134 0.113471
vt 0.030054 0.014301
vt 0.032808 0.011547
vt 0.062808 0.011160
vt 0.092139 0.011547
vt 0.093790 0.012650
vn -0.0000 -0.0000 1.0000
usemtl Material
s off
f 6/1/1 4/2/1 5/3/1
f 10/4/1 13/5/1 11/6/1
f 16/7/1 19/8/1 17/9/1
f 23/10/1 21/11/1 22/12/1
f 4/2/1 1/13/1 3/14/1
f 3/14/1 2/15/1 4/2/1
f 2/15/1 5/3/1 4/2/1
f 5/3/1 8/16/1 7/17/1
f 7/17/1 6/1/1 5/3/1
f 3/14/1 9/18/1 10/4/1
f 10/4/1 12/19/1 13/5/1
f 13/5/1 14/20/1 11/6/1
f 11/6/1 2/15/1 10/4/1
f 2/15/1 3/14/1 10/4/1
f 3/14/1 1/13/1 16/7/1
f 16/7/1 18/21/1 19/8/1
f 19/8/1 20/22/1 17/9/1
f 17/9/1 15/23/1 16/7/1
f 15/23/1 3/14/1 16/7/1
f 21/11/1 9/18/1 3/14/1
f 3/14/1 15/23/1 21/11/1
f 15/23/1 22/12/1 21/11/1
f 22/12/1 25/24/1 24/25/1
f 24/25/1 23/10/1 22/12/1
